<!DOCTYPE svg PUBLIC "-//W3C//DTD SVG 1.1//EN" "http://www.w3.org/Graphics/SVG/1.1/DTD/svg11.dtd">
<!-- Uploaded to: SVG Repo, www.svgrepo.com, Transformed by: SVG Repo Mixer Tools -->
<svg fill="#222222" height="64px" width="64px" version="1.1" id="Layer_1" xmlns="http://www.w3.org/2000/svg" xmlns:xlink="http://www.w3.org/1999/xlink" viewBox="-163.84 -163.84 839.68 839.68" xml:space="preserve" stroke="#222222">
<g id="SVGRepo_bgCarrier" stroke-width="0">
<rect x="-163.84" y="-163.84" width="839.68" height="839.68" rx="75.5712" fill="#2f4f2f" strokewidth="0"/>
</g>
<g id="SVGRepo_tracerCarrier" stroke-linecap="round" stroke-linejoin="round"/>
<g id="SVGRepo_iconCarrier"> <g> <g> <polygon points="457.567,158.548 411.387,149.622 388.62,108.453 365.856,149.622 319.672,158.548 351.785,192.922 346.002,239.605 388.62,219.68 431.238,239.605 425.456,192.922 "/> </g> </g> <g> <g> <polygon points="401.642,331.423 369.89,325.287 354.24,296.984 338.589,325.287 306.839,331.423 328.917,355.057 324.939,387.151 354.24,373.453 383.538,387.151 379.564,355.057 "/> </g> </g> <g> <g> <path d="M204.914,255.998c0-104.784,65.545-194.245,157.866-229.661C329.817,10.671,292.969,1.892,254.107,1.892 C113.991,1.892,0,115.883,0,255.999s113.991,254.107,254.107,254.107c38.864,0,75.711-8.777,108.676-24.447 C270.462,450.247,204.914,360.783,204.914,255.998z"/> </g> </g> <g> <g> <polygon points="511.998,284.177 486.02,279.156 473.215,255.999 460.411,279.156 434.43,284.177 452.496,303.514 449.242,329.772 473.215,318.564 497.185,329.772 493.935,303.514 "/> </g> </g> </g>
</svg>